<?xml version="1.0" encoding="UTF-8"?>
<svg xmlns="http://www.w3.org/2000/svg" xmlns:xlink="http://www.w3.org/1999/xlink" width="100pt" height="100pt" viewBox="0 0 100 100" version="1.1">
<g id="surface3802928">
<path style=" stroke:none;fill-rule:nonzero;fill:rgb(100%,100%,100%);fill-opacity:1;" d="M 50 13.332031 C 27.949219 13.332031 10 31.28125 10 53.332031 L 10 70 C 9.984375 71.203125 10.613281 72.320312 11.652344 72.925781 C 12.691406 73.53125 13.976562 73.53125 15.015625 72.925781 C 16.050781 72.320312 16.683594 71.203125 16.667969 70 L 16.667969 53.332031 C 16.667969 34.886719 31.550781 20 50 20 C 68.449219 20 83.332031 34.886719 83.332031 53.332031 L 83.332031 70 C 83.316406 71.203125 83.949219 72.320312 84.984375 72.925781 C 86.023438 73.53125 87.308594 73.53125 88.347656 72.925781 C 89.386719 72.320312 90.015625 71.203125 90 70 L 90 53.332031 C 90 31.28125 72.050781 13.332031 50 13.332031 Z M 26.667969 56.667969 C 24.828125 56.667969 23.332031 58.160156 23.332031 60 L 23.332031 83.332031 C 23.332031 85.171875 24.828125 86.667969 26.667969 86.667969 L 30 86.667969 C 33.683594 86.667969 36.667969 83.683594 36.667969 80 L 36.667969 63.332031 C 36.667969 59.648438 33.683594 56.667969 30 56.667969 Z M 70 56.667969 C 66.316406 56.667969 63.332031 59.648438 63.332031 63.332031 L 63.332031 80 C 63.332031 83.683594 66.316406 86.667969 70 86.667969 L 73.332031 86.667969 C 75.171875 86.667969 76.667969 85.171875 76.667969 83.332031 L 76.667969 60 C 76.667969 58.160156 75.171875 56.667969 73.332031 56.667969 Z M 70 56.667969 "/>
</g>
</svg>
