<?xml version="1.0" encoding="UTF-8"?>
<svg xmlns="http://www.w3.org/2000/svg" xmlns:xlink="http://www.w3.org/1999/xlink" width="150pt" height="150pt" viewBox="0 0 150 150" version="1.1">
<g id="surface3872146">
<path style=" stroke:none;fill-rule:nonzero;fill:rgb(100%,16.470588%,14.117647%);fill-opacity:1;" d="M 5.4375 6 C 5.34375 6.023438 5.25 6.058594 5.15625 6.09375 C 2.238281 6.503906 0 8.976562 0 12 C 0 15.316406 2.683594 18 6 18 C 9.316406 18 12 15.316406 12 12 L 25.96875 12 C 29.707031 12 31.652344 12.773438 33.09375 14.0625 C 34.511719 15.339844 35.660156 17.496094 36.65625 20.8125 L 60.65625 117.65625 C 61.558594 121.089844 62.460938 124.628906 64.96875 127.5 C 66.011719 128.695312 67.324219 129.667969 68.90625 130.40625 C 67.148438 132.492188 66 135.082031 66 138 C 66 144.597656 71.402344 150 78 150 C 84.597656 150 90 144.597656 90 138 C 90 135.796875 89.355469 133.78125 88.3125 132 L 106.6875 132 C 105.644531 133.78125 105 135.796875 105 138 C 105 144.597656 110.402344 150 117 150 C 123.597656 150 129 144.597656 129 138 C 129 134.917969 127.746094 132.164062 125.8125 130.03125 C 126.152344 129.117188 126.011719 128.085938 125.460938 127.289062 C 124.898438 126.480469 123.984375 126 123 126 L 77.15625 126 C 72.527344 126 70.640625 125.015625 69.375 123.5625 C 68.121094 122.121094 67.359375 119.601562 66.46875 116.25 L 66.46875 116.15625 L 64.40625 108 L 119.4375 108 C 120.691406 108 121.828125 107.214844 122.25 106.03125 L 143.8125 49.03125 C 144.164062 48.117188 144.035156 47.085938 143.472656 46.277344 C 142.910156 45.46875 141.984375 44.988281 141 45 L 48.84375 45 L 42.46875 19.40625 C 42.46875 19.347656 42.46875 19.277344 42.46875 19.21875 C 41.320312 15.351562 39.832031 12 37.125 9.5625 C 34.417969 7.125 30.609375 6 25.96875 6 L 6 6 C 5.90625 6 5.8125 6 5.71875 6 C 5.625 6 5.53125 6 5.4375 6 Z M 50.34375 51 L 136.6875 51 L 117.375 102 L 63 102 Z M 78 132 C 81.351562 132 84 134.648438 84 138 C 84 141.351562 81.351562 144 78 144 C 74.648438 144 72 141.351562 72 138 C 72 134.648438 74.648438 132 78 132 Z M 117 132 C 120.351562 132 123 134.648438 123 138 C 123 141.351562 120.351562 144 117 144 C 113.648438 144 111 141.351562 111 138 C 111 134.648438 113.648438 132 117 132 Z M 117 132 "/>
</g>
</svg>
